<svg version="1.1" id="Layer_1" xmlns="http://www.w3.org/2000/svg" 
    xmlns:xlink="http://www.w3.org/1999/xlink" 
    x="0px"
    y="0px" 
    viewBox="222.63 111.75 190 180">
    <style type="text/css">
        .st0 {
            fill: #FFD387;
        }

        .st1 {
            fill: #FFBD4B;
        }

        .st2 {
            fill: #FFA70F;
        }
    </style>
    <g>
        <g>
            <path class="st0"
                d="M454.83,164.42H300.68c0.69-3.14,2.12-6.06,4.23-8.58c0.04-0.04,0.07-0.11,0.11-0.15l37.37-43.94h70.76    l37.33,43.94c0.04,0.04,0.04,0.04,0.07,0.07C452.68,158.33,454.14,161.28,454.83,164.42z">
            </path>
            <path class="st1"
                d="M454.8,174.2c0,0.04-0.04,0.07-0.04,0.11l-34.3,131.93l-26.87,31.88c-8.27,9.81-23.38,9.81-31.64-0.01    l-26.84-31.87l-34.34-131.93c0-0.07-0.04-0.11-0.04-0.18c-0.8-3.25-0.8-6.57-0.04-9.71h154.15    C455.64,167.6,455.6,170.95,454.8,174.2z">
            </path>
            <path class="st0"
                d="M335.1,306.24L227.51,178.65c-3.47-4.09-5.07-9.2-4.82-14.23h77.99c-0.77,3.14-0.77,6.46,0.04,9.71    c0,0.07,0.04,0.11,0.04,0.18L335.1,306.24z">
            </path>
            <path class="st2"
                d="M342.4,111.76l-37.37,43.94c-0.04,0.04-0.07,0.11-0.11,0.15c-2.12,2.52-3.54,5.44-4.23,8.58H222.7    c0.18-4.89,2.12-9.63,5.69-13.39l31.46-32.88c3.87-4.09,9.31-6.39,14.93-6.39H342.4z">
            </path>
            <path class="st1"
                d="M532.82,164.42h-77.99c-0.69-3.14-2.15-6.09-4.27-8.65c-0.04-0.04-0.04-0.04-0.07-0.07l-37.33-43.94h67.62    c5.62,0,11.06,2.3,14.93,6.39l31.42,32.88C530.74,154.79,532.64,159.57,532.82,164.42z">
            </path>
            <path class="st2"
                d="M532.82,164.42c0.26,5.04-1.35,10.15-4.82,14.23L420.46,306.24l34.3-131.93c0-0.04,0.04-0.07,0.04-0.11    c0.8-3.25,0.84-6.61,0.04-9.78H532.82z">
            </path>
        </g>
    </g>
</svg>