<?xml version="1.0" encoding="utf-8"?>
<!-- Generator: Adobe Illustrator 28.1.0, SVG Export Plug-In . SVG Version: 6.00 Build 0)  -->
<svg version="1.1" id="Layer_1" xmlns="http://www.w3.org/2000/svg" xmlns:xlink="http://www.w3.org/1999/xlink" x="0px" y="0px"
	 viewBox="0 0 841.89 318.16" style="enable-background:new 0 0 841.89 318.16;" xml:space="preserve">
<style type="text/css">
	.st0{fill:#FFFFFF;}
	.st1{fill:#FFD387;}
	.st2{fill:#FFBD4B;}
	.st3{fill:#FFA70F;}
</style>
<g>
	<g>
		<path class="st0" d="M316.61,100.47c2.01-2.19,4.19-3.1,6.38-3.1c4.19,0,7.66,3.46,7.66,7.84v114.86c0,4.19-3.46,7.84-7.66,7.84
			c-4.38,0-7.84-3.65-7.84-7.84v-25.34h-32.82c-4.01,0-7.11-3.1-7.11-7.11c0-4.01,3.1-7.29,7.11-7.29h32.82v-55.61l-84.05,100.46
			c-1.28,1.46-3.65,2.73-5.65,2.73c-4.01,0-7.29-3.28-7.29-7.29c0-1.64,0.36-3.1,1.82-4.74L316.61,100.47z"/>
		<path class="st0" d="M355.44,104.66c0-4.01,3.1-7.29,7.29-7.29c4.01,0,7.29,3.28,7.29,7.29v115.77c0,4.19-3.28,7.47-7.29,7.47
			c-4.19,0-7.29-3.28-7.29-7.47V104.66z"/>
		<path class="st0" d="M453.34,97.01c0,1.64-0.73,3.27-1.64,4.37l-17.5,20.97c-1.28,1.46-3.29,2.55-5.29,2.55
			c-3.82,0-7.29-3.09-7.29-6.92c0-1.65,0.73-3.11,1.64-4.38l17.5-20.97c1.46-1.82,3.46-2.74,5.47-2.74
			C450.07,89.89,453.34,93.17,453.34,97.01z"/>
		<path class="st0" d="M476.32,207.49c0,1.46-0.91,3.46-2.19,4.92c-7.66,9.12-20.24,15.87-35.55,15.87
			c-27.17,0-48.13-21.34-48.13-48.32c0-26.98,20.79-48.31,48.13-48.31c13.31,0,24.43,5.11,31.54,11.67
			c1.65,1.46,2.74,3.46,2.74,5.65c0,1.83-0.55,3.46-2.37,5.47l-32.46,38.83c-1.46,1.65-3.09,2.38-5.1,2.38
			c-4.01,0-6.93-2.74-6.93-6.57c0-1.64,0.37-3.27,1.64-4.55l28.44-33.55c-4.74-4.01-11.48-5.83-17.5-5.83
			c-18.59,0-33.37,15.3-33.37,34.81c0,19.33,14.59,34.82,33.37,34.82c10.39,0,18.6-4.55,24.25-10.93c2.01-1.83,3.64-3.29,6.2-3.29
			C473.22,200.56,476.32,203.47,476.32,207.49z"/>
		<path class="st0" d="M482.15,140.21c0-3.83,3.1-6.75,6.74-6.75h9.66v-16.41c0-4.19,3.28-7.29,7.29-7.29c4.19,0,7.29,3.1,7.29,7.29
			v16.41h24.07c3.65,0,6.74,2.92,6.74,6.75c0,3.65-3.1,6.75-6.74,6.75h-24.07v41.2c0,16.95,9.66,26.07,24.07,26.07
			c3.65,0,6.74,3.1,6.74,6.75c0,3.83-3.1,6.93-6.74,6.93c-22.61,0-38.65-15.31-38.65-39.74v-41.2h-9.66
			C485.25,146.96,482.15,143.86,482.15,140.21z"/>
		<path class="st0" d="M562.19,104.66c0-4.01,3.1-7.29,7.29-7.29c4.01,0,7.29,3.28,7.29,7.29v38.29c5.83-6.2,15.13-11.3,27.16-11.3
			c21.33,0,38.29,15.68,38.29,42.11v46.67c0,4.19-3.28,7.47-7.29,7.47c-4.19,0-7.29-3.28-7.29-7.47v-47.04
			c0-18.78-11.3-28.26-25.52-28.26c-13.86,0-25.34,9.3-25.34,28.26v47.04c0,4.19-3.28,7.47-7.29,7.47c-4.19,0-7.29-3.28-7.29-7.47
			V104.66z"/>
		<path class="st0" d="M662.64,179.95c0-26.98,20.78-48.31,48.13-48.31c27.35,0,47.95,21.33,47.95,48.31
			c0,26.98-20.6,48.31-47.95,48.31C683.42,228.27,662.64,206.94,662.64,179.95z M743.95,179.95c0-19.32-14.4-34.82-33.18-34.82
			c-18.78,0-33.36,15.5-33.36,34.82c0,19.14,14.58,34.82,33.36,34.82C729.55,214.78,743.95,199.1,743.95,179.95z"/>
	</g>
	<g>
		<path class="st1" d="M212.84,126.78h-86.1c0.39-1.75,1.18-3.38,2.36-4.79c0.02-0.02,0.04-0.06,0.06-0.08l20.87-24.54h39.52
			l20.85,24.54c0.02,0.02,0.02,0.02,0.04,0.04C211.64,123.38,212.46,125.03,212.84,126.78z"/>
		<path class="st2" d="M212.82,132.24c0,0.02-0.02,0.04-0.02,0.06l-19.16,73.69l-15.01,17.81c-4.62,5.48-13.06,5.48-17.67,0
			l-14.99-17.8l-19.18-73.69c0-0.04-0.02-0.06-0.02-0.1c-0.45-1.81-0.45-3.67-0.02-5.42h86.1
			C213.29,128.55,213.27,130.43,212.82,132.24z"/>
		<path class="st1" d="M145.97,205.99l-60.09-71.26c-1.94-2.28-2.83-5.14-2.69-7.95h43.56c-0.43,1.75-0.43,3.61,0.02,5.42
			c0,0.04,0.02,0.06,0.02,0.1L145.97,205.99z"/>
		<path class="st3" d="M150.04,97.37l-20.87,24.54c-0.02,0.02-0.04,0.06-0.06,0.08c-1.18,1.41-1.98,3.04-2.36,4.79H83.18
			c0.1-2.73,1.18-5.38,3.18-7.48l17.57-18.37c2.16-2.28,5.2-3.57,8.34-3.57H150.04z"/>
		<path class="st2" d="M256.4,126.78h-43.56c-0.39-1.75-1.2-3.4-2.38-4.83c-0.02-0.02-0.02-0.02-0.04-0.04l-20.85-24.54h37.77
			c3.14,0,6.18,1.28,8.34,3.57l17.55,18.37C255.24,121.4,256.3,124.07,256.4,126.78z"/>
		<path class="st3" d="M256.4,126.78c0.14,2.81-0.75,5.67-2.69,7.95l-60.07,71.26l19.16-73.69c0-0.02,0.02-0.04,0.02-0.06
			c0.45-1.81,0.47-3.69,0.02-5.46H256.4z"/>
	</g>
</g>
</svg>
